<svg xmlns="http://www.w3.org/2000/svg" xmlns:xlink="http://www.w3.org/1999/xlink" width="290" height="280">
  <path xmlns="http://www.w3.org/2000/svg"
    d="M138.53685585 278.1h15.81352941l4.90764706-.54529412 4.635-.81794117h4.635l5.18029412-.81794118 4.90764706-1.09058824 2.45382352-.54529411 2.45382353-.81794118 4.635-1.63588235 5.45294118-2.18117647a147.22941176 147.22941176 0 0 0 41.715-25.62882353l3.81705882-3.2717647 1.90852942-1.3632353 1.63588235-1.09058824 2.72647059-1.3632353 2.18117647-1.36323529 4.08970588-3.2717647 4.08970588-4.08970588 2.18117647-2.7264706L260.41009114 222.48a138.77735294 138.77735294 0 0 0 10.6332353-15.81352941 94.88117647 94.88117647 0 0 0 4.36235294-8.45205883l.54529412-1.09058823.54529411-1.09058824.81794118-2.18117647.81794118-2.45382353.54529411-1.09058823v-1.09058824l1.09058824-3.2717647.54529412-1.63588236v-.81794117h.27264706v-.54529412L282.4945029 176.13c.54529412-2.45382353 1.09058824-4.635 1.3632353-7.08882353a69.25235294 69.25235294 0 0 0 .54529412-7.08882353v-8.45205882c0-.81794118 0-2.7264706.27264706-4.08970588V143.685a58.07382353 58.07382353 0 0 0 .54529412-7.08882353v-7.08882353c0-2.45382353-.27264706-2.99911765-.27264706-4.36235294l-.54529412-4.08970588c-.27264706-2.7264706-1.09058824-5.45294118-1.3632353-8.17941177s-.54529411-2.72647059-.81794117-3.81705882l-.81794118-3.81705882-.81794117-3.81705883v-4.635l-1.09058824-3.81705882-.54529412-1.90852941-.54529412-1.90852941-1.09058823-3.81705883-1.3632353-3.81705882L274.86038527 78.795l-1.3632353-2.72647059-2.72647058-5.72558823a110.96735294 110.96735294 0 0 1-4.90764706-11.17852942 9.81529412 9.81529412 0 0 0-2.18117647-3.2717647l-1.90852941-1.63588235-.54529412-.81794118-.81794118-1.3632353a70.07029412 70.07029412 0 0 0-4.36235294-6.27088235l-2.18117647-2.99911764-2.45382353-2.99911765-1.09058823-1.3632353-.54529412-.81794117L249.23156173 37.08h-.27264706l-2.45382353-2.72647059-1.3632353-1.3632353-1.36323529-1.36323529-2.45382353-2.99911764-2.99911764-2.7264706a130.59794118 130.59794118 0 0 0-10.36058824-8.17941176l-.27264706-1.3632353L224.14803232 13.905a79.06764706 79.06764706 0 0 0-27.81-12.81441176h-8.45205882a2.18117647 2.18117647 0 0 0-1.63588236 3.2717647 10.6332353 10.6332353 0 0 0 4.36235294 3.81705882l-1.63588235.81794118-1.09058823-.54529412a2.45382353 2.45382353 0 0 0 0-.81794117c-.27264706-1.3632353-.54529412-2.45382353-3.54441177-3.54441177l-6.27088235-2.18117647-1.63588236-.54529412h-1.63588235L171.25450291 0l-3.54441177 3.2717647a132.23382353 132.23382353 0 0 0-61.34558823 3.27176471 84.7932353 84.7932353 0 0 0-20.72117647 4.36235294h-1.3632353l-1.3632353.54529412-2.72647058 1.09058824L77.46391467 13.905l-2.45382353 1.63588235-4.90764706 4.08970589-2.18117647 1.63588235L66.01273821 23.175c-2.7264706 2.45382353-5.18029413 5.18029412-7.63411766 7.63411765l-3.81705882 4.08970588-3.81705882 4.08970588-1.3632353 1.3632353L48.01803231 41.715l-2.99911764 2.72647059A150.22852941 150.22852941 0 0 0 25.93362055 63.5267647l.54529412-1.3632353 1.63588235-2.99911765 1.63588236-2.99911764 1.63588235-2.99911765 1.63588235-3.2717647 1.63588236-3.27176471 3.2717647-6.54352941 1.09058824-2.18117647.81794117-1.63588236a2.72647059 2.72647059 0 0 0 0-2.18117647 10.08794118 10.08794118 0 0 1-.54529411-3.2717647 46.62264706 46.62264706 0 0 0-5.72558824 2.99911764l-4.08970588 2.99911765-2.18117647 1.63588235-1.90852941 1.90852942-2.18117647 2.72647058-1.3632353 2.7264706-1.3632353 2.72647058-.54529411 1.3632353-.81794118 1.36323529-.81794117 1.63588235-1.09058824 2.18117647-1.09058823 2.18117647-1.90852942 4.635-1.36323529 3.54441177-1.3632353 3.54441176v1.90852941l-.54529411 1.63588236-.81794118 3.54441176v.54529412H9.02950291v.81794118l-.54529412 1.9085294-.81794118 3.81705883-.54529411 1.90852941-.54529412 1.90852941-1.09058824 4.635-1.09058823 5.18029412-.54529412 2.45382353v7.63411765l-1.63588235 5.18029412a104.42382353 104.42382353 0 0 0-.27264706 11.1785294A143.685 143.685 0 0 0 .03214997 146.9567647a14.17764706 14.17764706 0 0 0 0 1.9085294c1.36323529 8.17941177 2.18117647 16.35882354 4.08970588 24.5382353l1.09058823 4.90764706 1.3632353 4.90764706a49.89441176 49.89441176 0 0 0 1.63588235 4.635L9.30214997 190.035l1.09058823 2.18117647 2.45382353 4.635 1.3632353 2.18117647 1.36323529 2.18117647 1.3632353 2.18117647 1.36323529 2.18117647 2.99911764 4.36235294c3.81705883 5.45294118 7.90676471 10.90588236 12.26911765 16.08617647a97.06235294 97.06235294 0 0 0 7.08882353 7.3614706l1.90852941 1.63588235.81794118.81794117 1.09058823.81794118 4.08970589 2.99911765 2.72647058 2.72647058a92.7 92.7 0 0 0 22.35705883 16.90411765l3.81705882 1.90852941 4.08970588 1.90852941 1.90852942.81794118 2.18117647.81794118 4.08970588 1.63588235 2.45382353 1.09058824 2.18117647 1.09058823 2.18117647 1.09058824 2.72647059 1.09058823 5.18029412 1.90852941 5.18029411 1.63588236 4.36235294 1.09058823 4.36235295 1.09058824 4.36235294.81794117h15.54088235z"
    fill="#1a5dbb" />
  <g xmlns="http://www.w3.org/2000/svg" fill="#fff">
    <path
      d="M185.31801671 85.08171827c-.0048091-.1202276-.02885462-.23853154-.07309837-.35202639-.00577093-.0144273-.00865639-.02981644-.01442731-.04424375-.03558737-.08175476-.07983112-.16062406-.13657855-.2317988-.02019823-.02596916-.04712921-.04712921-.06925109-.07021291-.01635095-.0182746-.03077826-.03366373-.04905286-.05001468-.08944932-.0836784-.18947868-.1529295-.30104989-.20198235-.01731277-.00769457-.03462554-.01250367-.05290014-.01923642-.12311305-.04712921-.25295885-.07790748-.38665193-.07790748h-.00384728l-7.10977885.02212188-.00769457-1.9159469 7.10977885-.0230837c.13369308-.00096182.26065342-.03174008.38184283-.0788693.02116006-.00769456.04232011-.01346549.06251835-.02212187.10772392-.04905286.20582964-.11638031.29335532-.1990969.02019824-.0192364.03847283-.037511.05770925-.05867106.02116005-.0230837.0461674-.04328193.0654038-.06828927.0557856-.07117473.09906754-.14908221.13369309-.22987516.00673274-.01538913.0096182-.02981644.01538913-.04520557.04424375-.1163803.06828927-.23949336.07117473-.36453006.00096182-.0096182.00577093-.0182746.00577093-.02693098 0-.00384728-.00192364-.00673274-.00192364-.01058003-.00192364-.0884875-.01154185-.17793683-.03462555-.2645007-1.09166653-4.12621094-4.88893478-6.99916946-9.24213541-6.99916946h-.03366373c-3.14226833.01154185-6.07870702 1.57546236-7.84268624 4.1012036l-10.37035113-.02212188c3.69627707-3.53853847 6.04889058-8.4486333 6.24894929-13.90792778 2.75946368-.77330387 4.73889075-2.79793651 4.73889075-5.17651918 0-2.92682049-2.99126248-5.32079229-6.75390518-5.49969094-.55977967-9.5989709-8.52461715-17.2444839-18.26209024-17.2444839-9.7384349 0-17.70134875 7.64455117-18.26112841 17.2444839-3.76168088.17889865-6.75294336 2.57287045-6.75294336 5.49969094 0 2.37858267 1.97942707 4.40321531 4.73792892 5.17651918.20102054 5.45640901 2.55074859 10.36361838 6.24125473 13.90119504h-12.860505l-4.55037388-1.679339c-.21256239-.07694566-.44339936-.0884875-.66269449-.02885462l-9.83173152 2.66905253c-.4732158.12888398-.80312031.55881784-.80312031 1.04934642l-.01346549 6.06427971c-.00096182.46552123.29431714.88006597.73386922 1.03203364l9.81922785 3.39234173c.11541849.03943465.23564608.0605947.35587367.0605947.1250367 0 .25199703-.02212187.3712628-.0654038l4.55710663-1.65336985 6.73274512-.00865638c.46648306 1.68991902 1.14360485 3.30385421 2.02655628 4.79852363l-.8213949 1.02337726c-.60690888.75502927-1.2109323 1.50621126-1.8091848 2.25258415-.24814975.30778264-.30778263.72425101-.16062406 1.09070471l.00673275.02019824c.02212187.06155652.07021291.19140232.17986047.34048454.04328194.05770924.08464023.11349484.12599852.17120409.12022759.16447134.24430246.33471361.38857557.50687952 1.09166654 1.2946107 2.35742262 2.5469013 3.7626427 3.72224623.1577386.13176944.31162992.2645007.46552124.40011743l.2269897.19717325c.05001467.04232011.10387663.08175476.1625477.11541849l.09137297.05290014c.42031566.2510352.9560498.1904405 1.30903801-.14715858.0327019-.03077826.06251835-.06155652.09425844-.09233479.01538913-.01538913.02885462-.03077826.04424375-.04520557 1.18496314-.92623337 2.19391309-1.74089553 3.11822281-2.51997032 1.58604239.90988241 3.2749996 1.59181331 5.02839879 2.03136539l.37799554 3.99540332c.00961821.0788693.02116006.1577386.03270191.2231424l.00577092.03751102c.0692511.47994854.44917029.85505863.92719519.92238608 1.19554317.16639498 2.3429953.24911157 3.45293643.24911157 1.37636546 0 2.6998308-.12696034 3.99059421-.38376647.47129216-.09522026.8252422-.4866813.87140959-.96566802l.40107924-4.2031566c1.65529348-.45590302 3.23652676-1.1224448 4.71292159-1.98423617l3.27403777 2.68251802c.39723196.32509541.96855348.3289427 1.37059454.00961821 1.56872961-1.2522906 3.5770113-2.98260609 5.1870992-5.27270125.2827753-.3991556.26161525-.93969886-.04905285-1.31865622-.89160782-1.08301015-1.77840653-2.162173-2.66520525-3.24325951.00865639-.01442731.01635096-.0278928.02404552-.04328193.88295143-1.53025679 1.539875-3.1595811 1.98423617-4.84853831l6.47978627-.02116006c1.77552107 2.505543 4.7090743 4.04926528 7.83980079 4.04926528h.03366372c4.36666612-.01442731 8.16201073-2.9181641 9.22866992-7.06264963.02116006-.08656387.03174009-.17408955.0327019-.26065342 0-.00577093.00288547-.0096182.00288547-.01538913-.00096182-.01250367-.00769457-.0230837-.00769457-.03654919zm-39.55776305-46.7646858v10.4665332c0 .88872236-.72232737 1.61104973-1.61104973 1.61104973h-.78773118c-.88872235 0-1.6100879-.72232737-1.6100879-1.61104973v-10.4665332c.65788538-.08175476 1.32346532-.13850219 2.00347258-.13850219s1.34654903.05674743 2.00539623.13850219zm-24.84094404 20.42522506c0-1.8091848 2.29778972-3.33751794 5.0197424-3.33751794h.58863428c.6030616 0 1.0897429-.48764311 1.0897429-1.08974289 0-7.69071857 5.41120343-14.13010837 12.6238971-15.73923445v10.2068416c0 1.72069729 1.39944916 3.12014646 3.11918463 3.12014646h.78773118c1.72069729 0 3.12014645-1.39944917 3.12014645-3.12014646V38.57672407c7.21269367 1.6100879 12.6238971 8.0494777 12.6238971 15.73923445 0 .60209978.48764312 1.08974289 1.08878108 1.08974289h.58863429c2.72099085 0 5.02166604 1.52833314 5.02166604 3.33751794 0 1.80822298-2.3006752 3.33655612-5.02166604 3.33655612h-35.62968719c-2.7229145-.00096182-5.02070422-1.52929497-5.02070422-3.33751794zm4.75427987 5.50546187c.08944933.00288546.1760132.01058003.26546253.01058003h35.630649c.08944933 0 .17697502-.00769457.26546253-.01058003-.56362695 9.4970179-8.44478603 17.05596704-18.08222976 17.05596704-9.63359645 0-17.51571735-7.55894914-18.0793443-17.05596704zm-13.7742347 23.8877797-8.71890493-3.01242254.01058003-4.45515363 8.69293577-2.36223172 3.69050615 1.36193816-.0096182 4.53402293-.00577093 2.60653418-3.65972789 1.32731261zm45.93751998 4.05118892c-.1202276.20775327-.24814975.41839201-.39146104.6453817-.25199703.39723197-.22025695.91180606.07694566 1.27441248.8723714 1.06185008 1.74378098 2.12273835 2.61807603 3.18651208-1.13302482 1.45042566-2.43821556 2.6488543-3.58951497 3.6049041l-3.18555027-2.60941964c-.36453005-.30008807-.88102779-.32990451-1.2763361-.07502202-1.52063859.97143894-3.17593206 1.70049906-4.92259851 2.16794393-.1856314.05001468-.37222463.0971439-.55881785.14042583-.45590303.10772392-.79061664.49245221-.8348604.95701163l-.39530831 4.14063825c-1.6052788.24237882-3.28077052.26834798-5.08322257.07790748l-.38857558-4.11178363c-.04520557-.47706309-.39627014-.8675623-.8627532-.9647062-1.82553574-.37799554-3.57989676-1.04742277-5.214992-1.99096891-.20486782-.11734213-.40685017-.24237883-.57805426-.3481791-.40300289-.25392068-.92430973-.2135242-1.28691614.09906753-.94931706.81562398-1.97365614 1.65336984-3.19420665 2.61519057-.0327019-.0278928-.06540381-.0557856-.09906754-.08464023-1.32827443-1.10994112-2.47091746-2.23911866-3.4933329-3.4519746.42993387-.53669597.86179138-1.07435376 1.29749617-1.61585883l1.30519074-1.6235534c.29431714-.3664537.3202863-.88006597.0654038-1.27441247-.09425843-.14331129-.18370775-.28950804-.27315708-.43474297-.853135-1.41099101-1.50428763-2.9412478-1.93518332-4.54845024-.02019823-.07790748-.04135829-.15677678-.0605947-.23372244-.03174009-.12696033-.0605947-.25392067-.09137297-.380881-.0096182-.04232012-.037511-.0740602-.05193832-.11445667-.02212188-.06828928-.05193832-.1298458-.08656387-.1904405-.02885462-.05001469-.05770924-.09618208-.09425843-.13946401-.06348017-.08079295-.13754036-.14715858-.22121877-.20775328-.01923641-.0134655-.03654918-.02596916-.05674742-.03847283-.10964756-.06732745-.22891333-.11253303-.35972095-.13850219-.00192364 0-.00384729-.00096182-.00577093-.00096182-.06636563-.01346549-.12792215-.04039647-.19909689-.04039647h-.00096182l-6.66926495.00769457.01346549-6.48170991h14.63794971c3.24614497 2.19872219 7.15690807 3.4846765 11.36391195 3.4846765s8.11776698-1.28595431 11.36295013-3.48371468l12.51328772.02693098v6.20182008l-6.76352339.0230837c-.21737149.00096181-.40781199.08175476-.57709244.19140232-.01635095.01058003-.02981644.02019823-.0461674.03077826-.08464022.0605947-.15677677.12888398-.22025694.21160056-.03751101.04520558-.06732745.09425844-.09810572.14523493-.03077826.05770925-.05770924.11349485-.07790748.17697502-.01635095.04520557-.0461674.08079294-.05674742.12888398-.38280465 1.76494104-1.03876639 3.46351645-1.9534579 5.04571156zm18.21592283-1.90921416c-.00769456 0-.01635095.00096182-.02500733.00096182-2.51612304 0-4.86873655-1.27825975-6.21720921-3.34328886v-7.65609303c1.3407781-2.06118182 3.6837734-3.34328886 6.1941255-3.35194525 2.8710349-.00384728 5.42563076 1.58508057 6.64618127 4.01560156l-6.63271577.0230837c-.28950804 0-.56651241.11541849-.7704184.32124812-.203906.20486782-.31740085.482834-.31740085.77138023l.01538913 4.0963945c.00288546.60017613.48956676 1.08493378 1.09070471 1.08493378h.00192364l6.6336776-.02019823c-1.20227592 2.4362919-3.75013904 4.04926528-6.61925029 4.05792166z" />
    <path
      d="M142.66896182 84.10739387c-3.80111553 0-6.89336918 3.09321547-6.89336918 6.89529282 0 3.80015372 3.09225365 6.89336919 6.89336918 6.89336919 3.80207736 0 6.89433101-3.09321547 6.89433101-6.89336919 0-3.80207735-3.09225365-6.89529282-6.894331-6.89529282zm0 12.2805271c-2.9691406 0-5.38427245-2.4170555-5.38427245-5.38523428 0-2.97106424 2.41513186-5.3861961 5.38427245-5.3861961s5.38523428 2.41513186 5.38523428 5.3861961c-.00096182 2.96817878-2.41609368 5.38523428-5.38523428 5.38523428z" />
  </g>
  <path
    d="M43.65450666 146.98176756c-.4417919-1.91443158-.58905587-3.6815992-.58905587-5.44876681 0-.8835838-.14726397-1.91443158 0-2.94527936.29452793-1.91443158.58905587-2.35622348 2.65075142-2.50348745.58905587-.14726397 1.17811174-.14726397 1.61990364 0 2.7980154 0 5.59603078-.29452794 8.2467822-1.17811174.29452794 0 .58905587-.14726397.73631984-.14726397 1.76716761-.14726397 3.38707126-.29452794 5.15423887-.4417919.73631984 0 1.47263968 0 2.06169555.14726396 1.17811174 0 2.20895952.14726397 3.2398073.29452794.4417919.14726397.8835838.14726397 1.3253757.29452794 1.61990365.4417919 3.2398073.8835838 5.0069749.73631983.88358381 0 1.76716762.14726397 2.65075143.58905588.58905587.29452793 1.3253757.58905587 1.91443158.73631983.58905587.29452794 1.17811174.4417919 1.76716761.73631984 1.76716762 1.03084778 3.38707126 2.20895952 5.15423887 3.38707126.4417919.29452794.73631984.73631984 1.03084778 1.17811174 1.17811174 1.32537572 2.35622348 2.7980154 3.6815992 3.97612714.73631983.58905587 1.17811174 1.3253757 1.61990364 2.06169554 1.17811174 1.61990365 2.20895952 3.38707126 2.79801539 5.44876681.4417919 1.32537571.8835838 2.65075142 1.17811174 4.1233911 0 .73631984.29452794 1.32537571.58905587 2.06169555.14726397.4417919.29452794.8835838.29452794 1.3253757.14726396 2.65075143.58905587 5.30150285 1.03084777 7.95225427v.29452794c-.14726397 2.79801538.58905587 5.59603077.58905587 8.54131013.14726397 2.65075142.29452794 5.30150284.73631984 7.95225426.14726397.8835838.4417919 1.76716761.58905587 2.65075142 0 .58905587.14726397 1.17811174.14726397 1.91443158.14726397 1.76716761.29452794 3.53433523.29452794 5.30150284 0 1.91443158-.14726397 3.82886316-.14726397 5.59603077 0 1.91443159-.29452794 3.82886317-.58905587 5.59603078-.29452794 2.20895952-.29452794 4.27065507-.88358381 6.47961458v1.32537571c0 .88358381-.14726397 1.76716762-.58905587 2.50348746-.29452794.8835838-.58905587 1.7671676-.73631984 2.65075142 0 .4417919-.14726397 1.03084777-.4417919 1.47263967-.4417919 1.03084778-.58905587 2.06169555-.58905587 3.2398073 0 .73631983-.29452794 1.3253757-.73631984 1.91443158-.58905587.73631984-1.03084778 1.61990364-1.32537571 2.65075142-.29452794.8835838-1.03084778 1.47263967-1.61990365 2.06169555 0 .14726396-.14726397.29452793-.4417919.4417919-1.03084778.29452793-1.91443158 1.03084777-2.7980154 1.91443158-.14726396.14726397-.58905586.29452794-1.03084777.29452794-.8835838 0-1.61990364.14726396-2.50348745.4417919-2.35622348.29452793-4.71244697 1.03084777-7.21593442 1.03084777-2.20895952.14726397-4.41791903.14726397-6.62687855 0-3.97612713-.14726396-7.8049903 0-11.63385345 0-.4417919 0-.88358381 0-1.32537571.14726397h-.73631984c-2.06169555 0-3.97612713-.14726397-5.89055872-.29452793-.29452793-.14726397-.73631983-.29452794-1.03084777-.4417919-.58905587-.88358381-1.61990365-1.03084778-2.50348745-1.47263969-.29452794-.14726396-.58905587-.4417919-.58905587-.8835838.14726396-1.76716762 0-3.6815992.73631984-5.44876681.14726396-.58905587.4417919-1.17811174.58905587-1.76716761.4417919-1.03084778 1.17811174-1.32537571 2.20895951-1.47263968.73631984-.14726397 1.61990365 0 2.35622349.29452793.29452793 0 .73631984-.29452793.73631984-.58905587.14726397-.8835838.14726397-1.61990364.14726397-2.50348745v-71.86481628c0-.58905587 0-1.17811174-.14726397-1.61990364 0-.29452794-.29452794-.4417919-.58905587-.58905588-1.17811175-.14726396-2.35622349-.14726396-3.38707126.14726397-1.32537571.4417919-2.65075142.4417919-3.97612713 0-.58905587-.29452793-1.47263968-.29452793-2.20895952-.29452793zm21.64780326-.58905587c0 .29452793-.14726396.4417919-.14726396.73631983v76.57726325c.14726396.29452794.4417919.58905587.73631984.58905587h1.61990364c2.35622349.14726397 4.565183 0 6.77414252.14726397 1.76716761 0 3.38707126-.29452793 5.0069749-.58905587 1.03084778-.14726397 2.06169555-.58905587 3.09254333-.8835838.58905587-.29452794.8835838-.58905588.8835838-1.17811175.14726397-1.17811174.4417919-2.20895952.88358381-3.09254332.4417919-1.03084778.58905587-2.06169555.8835838-3.09254333.14726398-.4417919.29452794-.73631983.44179191-1.03084777.4417919-.73631984.58905587-1.47263968.73631984-2.20895952.29452794-1.76716761.4417919-3.38707126.73631984-5.15423887.73631984-4.41791903.73631984-8.83583807.73631984-13.2537571 0-1.47263968-.14726397-2.94527936-.58905587-4.27065507-.29452794-.58905587-.29452794-1.17811174-.4417919-1.7671676-.14726397-1.47263969-.14726397-2.94527936-.44179191-4.27065507-.14726397-.58905588-.14726397-1.32537572-.14726397-1.91443159.14726397-2.20895951 0-4.27065506-.29452793-6.47961458-.14726397-.8835838-.14726397-1.91443158-.29452794-2.94527935 0-.4417919 0-1.03084778-.14726397-1.47263968-.29452793-2.50348745-.73631984-5.0069749-1.17811174-7.51046236-.29452793-2.35622348-1.17811174-4.41791903-1.91443158-6.62687855-.14726397-.73631984-.58905587-1.32537571-1.03084777-1.91443158-1.03084778-1.03084778-2.06169555-2.20895952-2.94527936-3.38707126-.8835838-1.03084777-1.76716761-1.76716761-2.94527936-2.35622348-1.47263967-1.03084778-2.94527935-1.47263968-4.71244697-1.91443159-.73631983-.14726396-1.47263967-.29452793-2.35622348-.4417919s-1.91443158-.4417919-2.94527936-.29452793zm104.7267707 87.91658876c-2.06169555 1.61990365-4.41791904 2.50348746-6.77414252 2.94527936-1.03084778.14726397-1.91443158.29452793-3.09254333-.14726397-.58905587-.58905587-.8835838-1.47263968-1.3253757-2.50348745-.73631985-2.20895952-1.61990365-4.565183-2.3562235-6.92140649-.29452793-.73631984-.8835838-1.47263967-1.17811173-2.20895951-.29452794-.29452794-.58905587-.58905587-.73631984-1.03084778-.73631984-1.91443158-1.61990365-3.82886316-2.50348745-5.89055871-.58905588-1.03084777-1.03084778-2.06169555-1.61990365-2.94527936-.73631984-1.03084777-1.32537571-2.06169554-1.76716761-3.23980729-.29452794-.58905587-.4417919-1.17811174-.73631984-1.61990364-1.03084778-1.47263968-1.61990365-3.2398073-2.06169555-5.0069749 0-.29452794-.14726397-.73631985-.14726397-1.03084778-.8835838-1.76716761-1.17811174-3.6815992-1.61990364-5.59603078-.4417919-2.50348745-1.17811175-4.85971093-2.50348746-7.06867045-.8835838-1.47263968-1.76716761-3.09254332-2.65075142-4.71244697l-.14726397-.14726397c-.14726396.14726397-.29452793.14726397-.4417919.29452794-.29452793.8835838-.58905587 1.76716761-.73631984 2.79801539-.73631984 2.65075142-1.47263968 5.30150284-2.35622348 7.80499029-.29452794.8835838-.4417919 1.91443158-.58905587 2.94527935-.14726397.58905587-.14726397 1.03084778-.29452794 1.61990365-.8835838 2.94527936-1.47263968 5.89055871-2.65075142 8.83583807-.8835838 1.91443158-1.17811174 4.1233911-1.47263968 6.18508664 0 1.47263968-.29452793 2.7980154-.58905587 4.1233911-.58905587 2.35622349-1.17811174 4.85971094-2.06169555 7.06867046-.73631984 1.91443158-1.17811174 3.97612713-1.47263967 6.03782267 0 .88358381-.14726397 1.61990365-.4417919 2.50348746-.14726398.58905587-.58905588.8835838-1.17811175.8835838-2.20895952 0-4.41791903 0-6.62687855-.14726396-1.47263968 0-2.94527936-.29452794-4.41791903-.4417919-1.03084778 0-1.61990365-.44179191-1.76716762-1.32537572-.4417919-1.3253757-.73631984-2.50348745-.73631984-3.6815992 0-1.03084777 0-2.06169554-.29452793-2.94527935-.29452794-1.47263968-.29452794-2.94527935-.29452794-4.41791903 0-.58905587 0-1.17811174-.14726397-1.76716761-.14726396-1.03084778-.14726396-2.06169555-.14726396-3.2398073V209.4216899c0-2.06169555.14726396-4.27065507-.14726397-6.33235062v-66.85784137c0-.73631984 0-1.61990365.14726397-2.35622349 0-.4417919.29452793-.8835838.73631984-.8835838 2.50348745-.58905587 5.0069749-.73631984 7.65772632-.58905587.8835838 0 1.76716761.29452793 2.50348745.58905587.29452794.14726396.4417919.4417919.58905587.73631984s.14726397.73631983.14726397 1.03084777c0 1.91443158.14726397 3.82886316.14726397 5.59603078 0 7.51046235-.14726397 14.87366074-.14726397 22.3841231 0 9.86668584 0 19.73337168.14726397 29.60005752v8.98310204c.14726397-.14726397.29452794-.14726397.4417919-.29452794.29452794-1.03084777.58905587-2.20895951.88358381-3.23980729.4417919-1.76716761 1.03084777-3.53433522 1.61990365-5.15423887 1.03084777-2.65075142 1.7671676-5.15423887 2.50348745-7.8049903.8835838-2.94527935 1.76716761-6.03782267 3.23980729-8.83583806.14726397-.58905587.58905587-1.17811174.8835838-1.76716761.88358381-1.17811175 1.76716762-2.35622349 2.50348746-3.6815992.29452793-.4417919.8835838-.8835838 1.3253757-1.3253757.14726398-.14726398.44179191-.29452794.73631985-.29452794 1.3253757.14726396 2.79801538-.14726397 4.1233911 0 .4417919 0 .8835838 0 1.3253757-.14726397.73631984-.29452794 1.32537572-.14726397 2.06169555-.14726397.88358381 0 1.47263968.29452794 2.20895952.73631984.58905587.4417919.8835838.8835838.8835838 1.61990365 0 .58905587 0 1.17811174-.14726396 1.7671676 0 1.03084778.14726397 1.91443159.58905587 2.7980154l2.20895952 5.30150284.8835838 1.76716761c2.94527936 5.0069749 5.0069749 10.30847775 6.33235062 16.05177249.4417919 2.06169555 1.17811174 4.27065507 2.06169555 6.33235061.14726397.29452794.29452793.73631984.4417919 1.03084778.14726397.14726397.29452794.14726397.4417919.14726397.14726397-.14726397.14726397-.14726397.14726397-.29452794.29452794-1.61990364.14726397-3.2398073 0-4.85971094 0-.58905587-.14726396-1.3253757-.14726396-1.91443158 0-2.35622348 0-4.71244697-.29452794-6.92140648-.14726397-.88358381-.14726397-1.91443158-.14726397-2.7980154-.14726397-3.09254331-.4417919-6.18508664-.73631984-9.27762996v-.73631984c-.14726397-3.2398073-.14726397-6.47961458-.29452793-9.71942187-.29452794-11.4865895 0-22.97317898-.14726397-34.60703243v-1.91443159c.14726397-.29452793.29452793-.4417919.29452793-.58905587 2.65075143-.73631984 5.15423888-.73631984 7.65772633-.73631984.4417919 0 .8835838 0 1.32537571.14726397 2.06169555.4417919 2.06169555.4417919 2.20895952 2.50348745 0 .4417919.14726396.88358381.14726396 1.47263968-.14726396 1.91443158.29452794 3.97612713.4417919 5.89055871.29452794.73631984.14726398 1.47263968.14726398 2.20895952-.14726397.58905587-.14726397 1.32537571 0 1.91443158.29452793 1.61990365.14726396 3.09254333.14726396 4.71244697.14726397 9.130366.14726397 18.11346804.14726397 27.24383404 0 .58905587 0 1.17811174.14726397 1.76716761.14726397 1.76716762.14726397 3.6815992.14726397 5.59603078v41.82296685c0 2.50348745-.29452794 4.85971094-.58905587 7.21593442zm34.04006615-37.69957575c-.4417919.4417919-.73631984 1.17811174-1.03084778 1.76716761-.58905587.58905587-1.17811174 1.03084778-2.06169554 1.03084778s-1.61990365 0-2.50348746.14726397c-.14726396.29452793-.29452793.58905587-.29452793.8835838v36.37420005c0 1.17811174-.14726397 2.20895951-.14726397 3.38707125 0 .29452794-.4417919.73631984-.73631984.73631984-3.23980729.58905587-6.47961458.88358381-9.42489394.73631984-.8835838-.14726397-1.76716761-.4417919-2.50348745-.73631984-.8835838-1.03084777-1.03084777-2.20895951-1.03084777-3.23980729 0-2.20895951-.14726397-4.565183-.14726397-6.77414252v-72.74840008c.14726397-3.38707126.29452793-6.92140649.29452793-10.30847775.14726397-3.53433522.29452794-6.92140648.4417919-10.45574171 0-2.35622348.29452794-4.71244697.58905588-6.92140649 0-.8835838.4417919-1.3253757 1.3253757-1.47263967.73631985-.14726397 1.32537572-.4417919 2.06169556-.58905587 2.35622348-.73631984 4.85971093-.4417919 7.21593442.29452793.29452793.14726397.58905587.4417919.73631984.8835838 0 .29452794.14726397.58905588.14726397.88358381.29452793 3.09254333.58905587 6.03782268.58905587 9.130366 0 2.50348746.14726396 5.00697491.4417919 7.65772633.14726397.8835838.14726397 1.91443158.14726397 2.94527936v29.74732149c0 .8835838 0 1.76716761.14726397 2.65075142 0 .14726397.14726396.29452794.29452793.4417919.14726397 0 .29452794-.14726396.29452794-.14726396.29452793-.29452794.58905587-.58905588.73631984-1.03084778 2.50348745-3.6815992 4.85971093-7.51046236 6.77414251-11.48658949.88358381-1.7671676 1.61990365-3.53433522 2.20895952-5.4487668.73631984-1.61990365 1.47263968-3.2398073 1.91443158-5.15423888.14726397-.4417919.58905587-1.03084777.8835838-1.47263967 1.76716762-2.35622349 3.09254333-4.85971094 5.15423888-6.92140649.58905587-.73631984 1.03084778-1.76716761 1.47263968-2.65075142.29452793-.29452794.29452793-.73631984.4417919-1.17811174 0-.4417919 0-1.03084778.14726397-1.47263968.4417919-.73631984.8835838-1.32537571 1.47263968-1.91443158 1.03084777-.8835838 1.91443158-1.91443158 2.20895951-3.2398073 0-.14726396.14726397-.29452793.29452794-.58905586.29452794-.4417919.58905587-.73631984 1.17811174-.73631984 1.03084778 0 2.06169555-.29452794 2.94527936-.73631984.29452793-.14726397.58905587-.29452794.73631984-.29452794.73631984 0 .8835838.58905587 1.3253757.8835838.73631985.58905588 1.47263969 1.17811175 2.3562235 1.32537572s1.61990364.73631984 2.35622348 1.17811174c.58905587 1.47263968 1.03084777 2.94527936 1.61990364 4.27065507.58905587 1.03084777.29452794 1.76716761-.29452793 2.50348745-.29452794.4417919-.73631984.73631984-1.03084778 1.17811174s-.73631984.73631984-1.03084777 1.17811174c-.4417919.4417919-.73631984.88358381-.8835838 1.61990365-.29452794 1.32537571-.88358382 2.65075142-1.61990365 3.82886316-.4417919.58905587-.73631984 1.17811174-1.03084778 1.91443158-.4417919 1.17811175-1.17811174 2.06169555-2.20895952 2.7980154-1.7671676 1.17811173-2.94527935 2.79801538-3.97612713 4.565183-.29452793.8835838-.73631984 1.61990364-1.03084777 2.50348745-1.47263968 2.79801538-2.79801539 5.74329474-4.1233911 8.54131013-.8835838 2.06169555-2.20895952 3.97612713-3.38707126 5.74329474-.4417919.58905587-.4417919 1.17811174-.14726397 1.76716761 1.03084778 2.65075142 2.50348746 5.15423888 3.97612713 7.51046236 2.35622349 3.53433523 4.1233911 7.21593442 6.03782268 11.04479759 1.17811175 2.35622348 2.50348746 4.565183 3.6815992 6.92140648.8835838 1.61990365 1.76716761 3.2398073 2.50348745 4.85971094 1.47263968 3.09254332 3.38707126 5.8905587 5.89055871 8.2467822.73631984.73631983 1.47263968 1.61990364 1.76716762 2.79801538.29452793.58905587.73631983 1.17811174 1.3253757 1.61990365.29452794.29452793.58905588.73631984.73631984 1.17811174.58905588 1.47263968 1.17811175 2.65075142 2.06169555 3.82886316.58905587.8835838.73631984 1.91443158.58905587 2.94527936 0 .29452793-.14726396.58905587-.29452793.73631984-1.17811174.8835838-1.47263968 2.20895951-1.91443158 3.38707126-1.91443158.8835838-3.6815992 1.61990364-5.59603078 2.35622348-1.3253757.4417919-2.65075142.4417919-3.82886316-.29452794-.8835838-.73631983-1.76716761-1.47263967-2.20895952-2.50348745-.4417919-1.3253757-1.03084777-2.50348745-1.76716761-3.53433522-.8835838-1.91443159-2.06169555-3.53433523-3.2398073-5.15423888-2.50348744-3.23980729-4.41791903-6.62687855-6.3323506-10.16121377-1.17811175-2.50348746-2.50348746-4.85971094-3.82886317-7.21593443-1.3253757-2.65075142-2.65075142-5.30150284-4.1233911-7.95225426-.8835838-1.7671676-1.76716761-3.82886316-3.38707126-5.30150284-.58905587-.58905587-1.03084777-1.61990364-1.47263967-2.35622348-.14726397-.29452794-.29452794-.4417919-.58905588-.73631984h-.29452793z"
    fill="#fff" />
</svg>